<svg xmlns="http://www.w3.org/2000/svg" xmlns:xlink="http://www.w3.org/1999/xlink" width="240" zoomAndPan="magnify" viewBox="0 0 180 35.25" height="47" preserveAspectRatio="xMidYMid meet" version="1.0"><defs><g/></defs><g fill="#27334b" fill-opacity="1"><g transform="translate(7.672877, 18.992757)"><g><path d="M 7.96875 0 L 0.875 0 L 0.875 -12.28125 L 3.4375 -12.28125 L 3.4375 -2.203125 L 7.96875 -2.203125 Z M 7.96875 0 "/></g></g></g><g fill="#27334b" fill-opacity="1"><g transform="translate(15.295095, 18.992757)"><g><path d="M 8.28125 -3.28125 L 2.96875 -3.28125 C 3.019531 -2.695312 3.175781 -2.285156 3.4375 -2.046875 C 3.707031 -1.804688 4.070312 -1.6875 4.53125 -1.6875 C 4.96875 -1.6875 5.3125 -1.785156 5.5625 -1.984375 C 5.8125 -2.191406 5.9375 -2.421875 5.9375 -2.671875 L 8.28125 -2.671875 L 8.28125 -2.609375 C 8.28125 -2.085938 8.132812 -1.609375 7.84375 -1.171875 C 7.550781 -0.742188 7.125 -0.40625 6.5625 -0.15625 C 6.007812 0.0820312 5.328125 0.203125 4.515625 0.203125 C 3.597656 0.203125 2.835938 0.0234375 2.234375 -0.328125 C 1.640625 -0.679688 1.195312 -1.171875 0.90625 -1.796875 C 0.613281 -2.429688 0.46875 -3.148438 0.46875 -3.953125 L 0.46875 -4.390625 C 0.46875 -5.203125 0.613281 -5.921875 0.90625 -6.546875 C 1.207031 -7.171875 1.648438 -7.660156 2.234375 -8.015625 C 2.828125 -8.367188 3.554688 -8.546875 4.421875 -8.546875 C 5.304688 -8.546875 6.035156 -8.367188 6.609375 -8.015625 C 7.179688 -7.660156 7.601562 -7.171875 7.875 -6.546875 C 8.144531 -5.921875 8.28125 -5.203125 8.28125 -4.390625 Z M 4.375 -6.65625 C 3.519531 -6.65625 3.054688 -6.128906 2.984375 -5.078125 L 5.78125 -5.078125 C 5.707031 -6.128906 5.238281 -6.65625 4.375 -6.65625 Z M 4.375 -6.65625 "/></g></g></g><g fill="#27334b" fill-opacity="1"><g transform="translate(23.468525, 18.992757)"><g><path d="M 5.796875 0 L 5.640625 -0.859375 C 5.347656 -0.546875 4.984375 -0.289062 4.546875 -0.09375 C 4.117188 0.101562 3.613281 0.203125 3.03125 0.203125 C 2.40625 0.203125 1.898438 0.0859375 1.515625 -0.140625 C 1.140625 -0.367188 0.867188 -0.675781 0.703125 -1.0625 C 0.546875 -1.445312 0.46875 -1.859375 0.46875 -2.296875 L 0.46875 -2.453125 C 0.46875 -3.066406 0.597656 -3.550781 0.859375 -3.90625 C 1.117188 -4.257812 1.472656 -4.53125 1.921875 -4.71875 C 2.367188 -4.914062 2.882812 -5.054688 3.46875 -5.140625 L 5.390625 -5.4375 C 5.378906 -5.84375 5.289062 -6.144531 5.125 -6.34375 C 4.96875 -6.550781 4.675781 -6.65625 4.25 -6.65625 C 3.800781 -6.65625 3.503906 -6.546875 3.359375 -6.328125 C 3.210938 -6.109375 3.140625 -5.863281 3.140625 -5.59375 L 0.78125 -5.59375 L 0.78125 -5.734375 C 0.78125 -6.210938 0.882812 -6.664062 1.09375 -7.09375 C 1.3125 -7.53125 1.675781 -7.878906 2.1875 -8.140625 C 2.707031 -8.410156 3.421875 -8.546875 4.328125 -8.546875 C 5.242188 -8.546875 5.957031 -8.421875 6.46875 -8.171875 C 6.988281 -7.921875 7.351562 -7.554688 7.5625 -7.078125 C 7.769531 -6.609375 7.875 -6.039062 7.875 -5.375 L 7.875 -2.359375 L 8.03125 0 Z M 3.9375 -1.8125 C 4.289062 -1.8125 4.585938 -1.878906 4.828125 -2.015625 C 5.066406 -2.160156 5.253906 -2.300781 5.390625 -2.4375 L 5.390625 -3.96875 L 3.96875 -3.75 C 3.582031 -3.6875 3.3125 -3.566406 3.15625 -3.390625 C 3.007812 -3.222656 2.9375 -3.007812 2.9375 -2.75 L 2.9375 -2.65625 C 2.9375 -2.445312 3.015625 -2.253906 3.171875 -2.078125 C 3.328125 -1.898438 3.582031 -1.8125 3.9375 -1.8125 Z M 3.9375 -1.8125 "/></g></g></g><g fill="#27334b" fill-opacity="1"><g transform="translate(31.531719, 18.992757)"><g><path d="M 5.328125 -8.546875 C 5.367188 -8.546875 5.410156 -8.546875 5.453125 -8.546875 C 5.492188 -8.546875 5.53125 -8.539062 5.5625 -8.53125 L 5.5625 -6.140625 L 5.140625 -6.140625 C 4.628906 -6.140625 4.226562 -6.054688 3.9375 -5.890625 C 3.65625 -5.734375 3.457031 -5.578125 3.34375 -5.421875 L 3.34375 0 L 0.84375 0 L 0.84375 -5.984375 L 0.703125 -8.34375 L 2.921875 -8.34375 L 3.109375 -7.375 C 3.347656 -7.71875 3.65625 -8 4.03125 -8.21875 C 4.40625 -8.4375 4.835938 -8.546875 5.328125 -8.546875 Z M 5.328125 -8.546875 "/></g></g></g><g fill="#27334b" fill-opacity="1"><g transform="translate(37.012095, 18.992757)"><g><path d="M 8.375 0 L 5.90625 0 L 5.90625 -5.25 C 5.90625 -5.550781 5.828125 -5.816406 5.671875 -6.046875 C 5.523438 -6.285156 5.234375 -6.40625 4.796875 -6.40625 C 4.410156 -6.40625 4.09375 -6.3125 3.84375 -6.125 C 3.601562 -5.9375 3.4375 -5.769531 3.34375 -5.625 L 3.34375 0 L 0.84375 0 L 0.84375 -5.984375 L 0.703125 -8.34375 L 2.921875 -8.34375 L 3.125 -7.28125 C 3.382812 -7.644531 3.734375 -7.945312 4.171875 -8.1875 C 4.609375 -8.425781 5.148438 -8.546875 5.796875 -8.546875 C 6.421875 -8.546875 6.921875 -8.410156 7.296875 -8.140625 C 7.679688 -7.867188 7.957031 -7.507812 8.125 -7.0625 C 8.289062 -6.625 8.375 -6.15625 8.375 -5.65625 Z M 8.375 0 "/></g></g></g><g fill="#27334b" fill-opacity="1"><g transform="translate(45.563505, 18.992757)"><g/></g></g><g fill="#27334b" fill-opacity="1"><g transform="translate(48.130342, 18.992757)"><g><path d="M 3.203125 -5.828125 C 3.203125 -5.003906 3.253906 -4.304688 3.359375 -3.734375 C 3.472656 -3.171875 3.675781 -2.738281 3.96875 -2.4375 C 4.257812 -2.144531 4.679688 -2 5.234375 -2 L 5.375 -2 C 5.988281 -2 6.425781 -2.195312 6.6875 -2.59375 C 6.945312 -3 7.078125 -3.53125 7.078125 -4.1875 L 9.625 -4.1875 L 9.625 -4.046875 C 9.625 -2.535156 9.253906 -1.445312 8.515625 -0.78125 C 7.785156 -0.125 6.691406 0.203125 5.234375 0.203125 C 3.628906 0.203125 2.457031 -0.269531 1.71875 -1.21875 C 0.976562 -2.164062 0.609375 -3.703125 0.609375 -5.828125 L 0.609375 -6.453125 C 0.609375 -8.585938 0.976562 -10.125 1.71875 -11.0625 C 2.457031 -12.007812 3.628906 -12.484375 5.234375 -12.484375 C 6.691406 -12.484375 7.785156 -12.148438 8.515625 -11.484375 C 9.253906 -10.816406 9.625 -9.71875 9.625 -8.1875 L 9.625 -7.625 L 7.078125 -7.625 C 7.078125 -8.46875 6.957031 -9.117188 6.71875 -9.578125 C 6.488281 -10.046875 6.039062 -10.28125 5.375 -10.28125 L 5.234375 -10.28125 C 4.679688 -10.28125 4.257812 -10.132812 3.96875 -9.84375 C 3.675781 -9.550781 3.472656 -9.117188 3.359375 -8.546875 C 3.253906 -7.972656 3.203125 -7.273438 3.203125 -6.453125 Z M 3.203125 -5.828125 "/></g></g></g><g fill="#27334b" fill-opacity="1"><g transform="translate(57.784163, 18.992757)"><g><path d="M 4.375 0.203125 C 3.488281 0.203125 2.753906 0.03125 2.171875 -0.3125 C 1.597656 -0.65625 1.171875 -1.132812 0.890625 -1.75 C 0.609375 -2.375 0.46875 -3.085938 0.46875 -3.890625 L 0.46875 -4.453125 C 0.46875 -5.265625 0.609375 -5.976562 0.890625 -6.59375 C 1.171875 -7.207031 1.597656 -7.6875 2.171875 -8.03125 C 2.753906 -8.375 3.488281 -8.546875 4.375 -8.546875 C 5.28125 -8.546875 6.019531 -8.375 6.59375 -8.03125 C 7.164062 -7.6875 7.585938 -7.207031 7.859375 -6.59375 C 8.140625 -5.976562 8.28125 -5.265625 8.28125 -4.453125 L 8.28125 -3.890625 C 8.28125 -3.085938 8.140625 -2.375 7.859375 -1.75 C 7.585938 -1.132812 7.164062 -0.65625 6.59375 -0.3125 C 6.019531 0.03125 5.28125 0.203125 4.375 0.203125 Z M 4.375 -1.9375 C 4.875 -1.9375 5.234375 -2.109375 5.453125 -2.453125 C 5.679688 -2.804688 5.796875 -3.285156 5.796875 -3.890625 L 5.796875 -4.453125 C 5.796875 -5.078125 5.679688 -5.554688 5.453125 -5.890625 C 5.234375 -6.234375 4.875 -6.40625 4.375 -6.40625 C 3.894531 -6.40625 3.539062 -6.234375 3.3125 -5.890625 C 3.082031 -5.554688 2.96875 -5.078125 2.96875 -4.453125 L 2.96875 -3.890625 C 2.96875 -3.285156 3.082031 -2.804688 3.3125 -2.453125 C 3.539062 -2.109375 3.894531 -1.9375 4.375 -1.9375 Z M 4.375 -1.9375 "/></g></g></g><g fill="#27334b" fill-opacity="1"><g transform="translate(65.957595, 18.992757)"><g><path d="M 12.84375 0 L 10.359375 0 L 10.359375 -5.359375 C 10.359375 -5.691406 10.28125 -5.945312 10.125 -6.125 C 9.96875 -6.3125 9.71875 -6.40625 9.375 -6.40625 C 9.007812 -6.40625 8.726562 -6.320312 8.53125 -6.15625 C 8.332031 -5.988281 8.179688 -5.832031 8.078125 -5.6875 L 8.078125 0 L 5.609375 0 L 5.609375 -5.359375 C 5.609375 -5.691406 5.53125 -5.945312 5.375 -6.125 C 5.21875 -6.3125 4.960938 -6.40625 4.609375 -6.40625 C 4.265625 -6.40625 3.988281 -6.320312 3.78125 -6.15625 C 3.582031 -5.988281 3.4375 -5.832031 3.34375 -5.6875 L 3.34375 0 L 0.84375 0 L 0.84375 -5.984375 L 0.703125 -8.34375 L 2.921875 -8.34375 L 3.109375 -7.34375 C 3.359375 -7.695312 3.6875 -7.984375 4.09375 -8.203125 C 4.5 -8.429688 5.003906 -8.546875 5.609375 -8.546875 C 6.160156 -8.546875 6.617188 -8.429688 6.984375 -8.203125 C 7.347656 -7.972656 7.617188 -7.660156 7.796875 -7.265625 C 8.046875 -7.628906 8.378906 -7.929688 8.796875 -8.171875 C 9.222656 -8.421875 9.742188 -8.546875 10.359375 -8.546875 C 10.941406 -8.546875 11.410156 -8.421875 11.765625 -8.171875 C 12.128906 -7.929688 12.398438 -7.597656 12.578125 -7.171875 C 12.753906 -6.742188 12.84375 -6.269531 12.84375 -5.75 Z M 12.84375 0 "/></g></g></g><g fill="#27334b" fill-opacity="1"><g transform="translate(78.965932, 18.992757)"><g><path d="M 5.46875 0.203125 C 4.96875 0.203125 4.546875 0.117188 4.203125 -0.046875 C 3.859375 -0.210938 3.566406 -0.429688 3.328125 -0.703125 L 3.328125 3.15625 L 0.828125 3.15625 L 0.828125 -5.984375 L 0.6875 -8.34375 L 2.90625 -8.34375 L 3.09375 -7.328125 C 3.332031 -7.679688 3.640625 -7.972656 4.015625 -8.203125 C 4.398438 -8.429688 4.882812 -8.546875 5.46875 -8.546875 C 6.226562 -8.546875 6.832031 -8.375 7.28125 -8.03125 C 7.738281 -7.6875 8.066406 -7.207031 8.265625 -6.59375 C 8.460938 -5.976562 8.5625 -5.265625 8.5625 -4.453125 L 8.5625 -3.890625 C 8.5625 -3.085938 8.460938 -2.375 8.265625 -1.75 C 8.066406 -1.132812 7.738281 -0.65625 7.28125 -0.3125 C 6.832031 0.03125 6.226562 0.203125 5.46875 0.203125 Z M 4.734375 -6.40625 C 4.367188 -6.40625 4.066406 -6.3125 3.828125 -6.125 C 3.597656 -5.9375 3.429688 -5.769531 3.328125 -5.625 L 3.328125 -2.71875 C 3.429688 -2.570312 3.597656 -2.40625 3.828125 -2.21875 C 4.066406 -2.03125 4.367188 -1.9375 4.734375 -1.9375 C 5.222656 -1.9375 5.566406 -2.109375 5.765625 -2.453125 C 5.972656 -2.804688 6.078125 -3.285156 6.078125 -3.890625 L 6.078125 -4.453125 C 6.078125 -5.078125 5.972656 -5.554688 5.765625 -5.890625 C 5.566406 -6.234375 5.222656 -6.40625 4.734375 -6.40625 Z M 4.734375 -6.40625 "/></g></g></g><g fill="#27334b" fill-opacity="1"><g transform="translate(87.422845, 18.992757)"><g><path d="M 0.75 -8.34375 L 3.234375 -8.34375 L 3.234375 -3.109375 C 3.234375 -2.804688 3.3125 -2.535156 3.46875 -2.296875 C 3.625 -2.054688 3.910156 -1.9375 4.328125 -1.9375 C 4.734375 -1.9375 5.050781 -2.03125 5.28125 -2.21875 C 5.519531 -2.40625 5.691406 -2.570312 5.796875 -2.71875 L 5.796875 -8.34375 L 8.28125 -8.34375 L 8.28125 -2.359375 L 8.421875 0 L 6.203125 0 L 6.015625 -1.0625 C 5.753906 -0.6875 5.398438 -0.378906 4.953125 -0.140625 C 4.515625 0.0859375 3.976562 0.203125 3.34375 0.203125 C 2.707031 0.203125 2.203125 0.0664062 1.828125 -0.203125 C 1.453125 -0.472656 1.175781 -0.828125 1 -1.265625 C 0.832031 -1.710938 0.75 -2.1875 0.75 -2.6875 Z M 0.75 -8.34375 "/></g></g></g><g fill="#27334b" fill-opacity="1"><g transform="translate(95.974255, 18.992757)"><g><path d="M 4.0625 -8.34375 L 6.203125 -8.34375 L 6.203125 -6.171875 L 4.0625 -6.171875 L 4.0625 -3.171875 C 4.0625 -2.648438 4.171875 -2.3125 4.390625 -2.15625 C 4.609375 -2.007812 4.910156 -1.9375 5.296875 -1.9375 C 5.429688 -1.9375 5.578125 -1.945312 5.734375 -1.96875 C 5.898438 -2 6.003906 -2.023438 6.046875 -2.046875 L 6.046875 0 C 5.972656 0.0390625 5.828125 0.0820312 5.609375 0.125 C 5.390625 0.175781 5.085938 0.203125 4.703125 0.203125 C 4.078125 0.203125 3.53125 0.101562 3.0625 -0.09375 C 2.59375 -0.289062 2.226562 -0.613281 1.96875 -1.0625 C 1.707031 -1.519531 1.578125 -2.128906 1.578125 -2.890625 L 1.578125 -6.171875 L 0.296875 -6.171875 L 0.296875 -8.34375 L 1.578125 -8.34375 L 1.578125 -10.703125 L 4.0625 -10.703125 Z M 4.0625 -8.34375 "/></g></g></g><g fill="#27334b" fill-opacity="1"><g transform="translate(102.179081, 18.992757)"><g><path d="M 8.28125 -3.28125 L 2.96875 -3.28125 C 3.019531 -2.695312 3.175781 -2.285156 3.4375 -2.046875 C 3.707031 -1.804688 4.070312 -1.6875 4.53125 -1.6875 C 4.96875 -1.6875 5.3125 -1.785156 5.5625 -1.984375 C 5.8125 -2.191406 5.9375 -2.421875 5.9375 -2.671875 L 8.28125 -2.671875 L 8.28125 -2.609375 C 8.28125 -2.085938 8.132812 -1.609375 7.84375 -1.171875 C 7.550781 -0.742188 7.125 -0.40625 6.5625 -0.15625 C 6.007812 0.0820312 5.328125 0.203125 4.515625 0.203125 C 3.597656 0.203125 2.835938 0.0234375 2.234375 -0.328125 C 1.640625 -0.679688 1.195312 -1.171875 0.90625 -1.796875 C 0.613281 -2.429688 0.46875 -3.148438 0.46875 -3.953125 L 0.46875 -4.390625 C 0.46875 -5.203125 0.613281 -5.921875 0.90625 -6.546875 C 1.207031 -7.171875 1.648438 -7.660156 2.234375 -8.015625 C 2.828125 -8.367188 3.554688 -8.546875 4.421875 -8.546875 C 5.304688 -8.546875 6.035156 -8.367188 6.609375 -8.015625 C 7.179688 -7.660156 7.601562 -7.171875 7.875 -6.546875 C 8.144531 -5.921875 8.28125 -5.203125 8.28125 -4.390625 Z M 4.375 -6.65625 C 3.519531 -6.65625 3.054688 -6.128906 2.984375 -5.078125 L 5.78125 -5.078125 C 5.707031 -6.128906 5.238281 -6.65625 4.375 -6.65625 Z M 4.375 -6.65625 "/></g></g></g><g fill="#27334b" fill-opacity="1"><g transform="translate(110.352513, 18.992757)"><g><path d="M 5.328125 -8.546875 C 5.367188 -8.546875 5.410156 -8.546875 5.453125 -8.546875 C 5.492188 -8.546875 5.53125 -8.539062 5.5625 -8.53125 L 5.5625 -6.140625 L 5.140625 -6.140625 C 4.628906 -6.140625 4.226562 -6.054688 3.9375 -5.890625 C 3.65625 -5.734375 3.457031 -5.578125 3.34375 -5.421875 L 3.34375 0 L 0.84375 0 L 0.84375 -5.984375 L 0.703125 -8.34375 L 2.921875 -8.34375 L 3.109375 -7.375 C 3.347656 -7.71875 3.65625 -8 4.03125 -8.21875 C 4.40625 -8.4375 4.835938 -8.546875 5.328125 -8.546875 Z M 5.328125 -8.546875 "/></g></g></g><g fill="#27334b" fill-opacity="1"><g transform="translate(115.832892, 18.992757)"><g/></g></g><g fill="#27334b" fill-opacity="1"><g transform="translate(118.399734, 18.992757)"><g><path d="M 4.5625 -5.140625 C 3.226562 -5.316406 2.238281 -5.671875 1.59375 -6.203125 C 0.945312 -6.734375 0.625 -7.550781 0.625 -8.65625 L 0.625 -8.828125 C 0.625 -9.941406 0.992188 -10.828125 1.734375 -11.484375 C 2.484375 -12.148438 3.5625 -12.484375 4.96875 -12.484375 C 6.476562 -12.484375 7.578125 -12.140625 8.265625 -11.453125 C 8.960938 -10.765625 9.3125 -9.703125 9.3125 -8.265625 L 9.3125 -7.9375 L 6.75 -7.9375 C 6.75 -8.75 6.613281 -9.34375 6.34375 -9.71875 C 6.082031 -10.09375 5.628906 -10.28125 4.984375 -10.28125 L 4.828125 -10.28125 C 4.316406 -10.28125 3.921875 -10.15625 3.640625 -9.90625 C 3.359375 -9.65625 3.21875 -9.332031 3.21875 -8.9375 L 3.21875 -8.84375 C 3.21875 -8.550781 3.269531 -8.300781 3.375 -8.09375 C 3.488281 -7.882812 3.695312 -7.710938 4 -7.578125 C 4.3125 -7.441406 4.769531 -7.332031 5.375 -7.25 C 6.71875 -7.070312 7.722656 -6.71875 8.390625 -6.1875 C 9.066406 -5.664062 9.40625 -4.832031 9.40625 -3.6875 L 9.40625 -3.53125 C 9.40625 -2.351562 9.023438 -1.4375 8.265625 -0.78125 C 7.503906 -0.125 6.40625 0.203125 4.96875 0.203125 C 3.507812 0.203125 2.40625 -0.132812 1.65625 -0.8125 C 0.90625 -1.488281 0.53125 -2.566406 0.53125 -4.046875 L 0.53125 -4.1875 L 3.09375 -4.1875 C 3.09375 -3.425781 3.242188 -2.867188 3.546875 -2.515625 C 3.859375 -2.171875 4.304688 -2 4.890625 -2 L 5.046875 -2 C 5.628906 -2 6.066406 -2.132812 6.359375 -2.40625 C 6.648438 -2.6875 6.796875 -3.035156 6.796875 -3.453125 L 6.796875 -3.53125 C 6.796875 -3.820312 6.734375 -4.070312 6.609375 -4.28125 C 6.484375 -4.488281 6.257812 -4.664062 5.9375 -4.8125 C 5.625 -4.957031 5.164062 -5.066406 4.5625 -5.140625 Z M 4.5625 -5.140625 "/></g></g></g><g fill="#27334b" fill-opacity="1"><g transform="translate(127.754338, 18.992757)"><g><path d="M 2.96875 -3.890625 C 2.96875 -3.285156 3.066406 -2.804688 3.265625 -2.453125 C 3.472656 -2.109375 3.816406 -1.9375 4.296875 -1.9375 C 4.691406 -1.9375 4.988281 -2.046875 5.1875 -2.265625 C 5.394531 -2.484375 5.5 -2.757812 5.5 -3.09375 L 7.84375 -3.09375 L 7.84375 -2.734375 C 7.84375 -1.878906 7.539062 -1.175781 6.9375 -0.625 C 6.34375 -0.0703125 5.445312 0.203125 4.25 0.203125 C 3.375 0.203125 2.65625 0.03125 2.09375 -0.3125 C 1.539062 -0.65625 1.128906 -1.132812 0.859375 -1.75 C 0.597656 -2.375 0.46875 -3.085938 0.46875 -3.890625 L 0.46875 -4.453125 C 0.46875 -5.265625 0.597656 -5.976562 0.859375 -6.59375 C 1.128906 -7.207031 1.539062 -7.6875 2.09375 -8.03125 C 2.65625 -8.375 3.375 -8.546875 4.25 -8.546875 C 5.445312 -8.546875 6.34375 -8.257812 6.9375 -7.6875 C 7.539062 -7.125 7.84375 -6.382812 7.84375 -5.46875 L 7.84375 -5.109375 L 5.5 -5.109375 C 5.5 -5.972656 5.097656 -6.40625 4.296875 -6.40625 C 3.816406 -6.40625 3.472656 -6.234375 3.265625 -5.890625 C 3.066406 -5.554688 2.96875 -5.078125 2.96875 -4.453125 Z M 2.96875 -3.890625 "/></g></g></g><g fill="#27334b" fill-opacity="1"><g transform="translate(135.471055, 18.992757)"><g><path d="M 0.84375 0 L 0.84375 -8.34375 L 3.34375 -8.34375 L 3.34375 0 Z M 3.40625 -12.15625 L 3.40625 -9.53125 L 0.78125 -9.53125 L 0.78125 -12.15625 Z M 3.40625 -12.15625 "/></g></g></g><g fill="#27334b" fill-opacity="1"><g transform="translate(139.077314, 18.992757)"><g><path d="M 8.28125 -3.28125 L 2.96875 -3.28125 C 3.019531 -2.695312 3.175781 -2.285156 3.4375 -2.046875 C 3.707031 -1.804688 4.070312 -1.6875 4.53125 -1.6875 C 4.96875 -1.6875 5.3125 -1.785156 5.5625 -1.984375 C 5.8125 -2.191406 5.9375 -2.421875 5.9375 -2.671875 L 8.28125 -2.671875 L 8.28125 -2.609375 C 8.28125 -2.085938 8.132812 -1.609375 7.84375 -1.171875 C 7.550781 -0.742188 7.125 -0.40625 6.5625 -0.15625 C 6.007812 0.0820312 5.328125 0.203125 4.515625 0.203125 C 3.597656 0.203125 2.835938 0.0234375 2.234375 -0.328125 C 1.640625 -0.679688 1.195312 -1.171875 0.90625 -1.796875 C 0.613281 -2.429688 0.46875 -3.148438 0.46875 -3.953125 L 0.46875 -4.390625 C 0.46875 -5.203125 0.613281 -5.921875 0.90625 -6.546875 C 1.207031 -7.171875 1.648438 -7.660156 2.234375 -8.015625 C 2.828125 -8.367188 3.554688 -8.546875 4.421875 -8.546875 C 5.304688 -8.546875 6.035156 -8.367188 6.609375 -8.015625 C 7.179688 -7.660156 7.601562 -7.171875 7.875 -6.546875 C 8.144531 -5.921875 8.28125 -5.203125 8.28125 -4.390625 Z M 4.375 -6.65625 C 3.519531 -6.65625 3.054688 -6.128906 2.984375 -5.078125 L 5.78125 -5.078125 C 5.707031 -6.128906 5.238281 -6.65625 4.375 -6.65625 Z M 4.375 -6.65625 "/></g></g></g><g fill="#27334b" fill-opacity="1"><g transform="translate(147.250747, 18.992757)"><g><path d="M 8.375 0 L 5.90625 0 L 5.90625 -5.25 C 5.90625 -5.550781 5.828125 -5.816406 5.671875 -6.046875 C 5.523438 -6.285156 5.234375 -6.40625 4.796875 -6.40625 C 4.410156 -6.40625 4.09375 -6.3125 3.84375 -6.125 C 3.601562 -5.9375 3.4375 -5.769531 3.34375 -5.625 L 3.34375 0 L 0.84375 0 L 0.84375 -5.984375 L 0.703125 -8.34375 L 2.921875 -8.34375 L 3.125 -7.28125 C 3.382812 -7.644531 3.734375 -7.945312 4.171875 -8.1875 C 4.609375 -8.425781 5.148438 -8.546875 5.796875 -8.546875 C 6.421875 -8.546875 6.921875 -8.410156 7.296875 -8.140625 C 7.679688 -7.867188 7.957031 -7.507812 8.125 -7.0625 C 8.289062 -6.625 8.375 -6.15625 8.375 -5.65625 Z M 8.375 0 "/></g></g></g><g fill="#27334b" fill-opacity="1"><g transform="translate(155.802156, 18.992757)"><g><path d="M 2.96875 -3.890625 C 2.96875 -3.285156 3.066406 -2.804688 3.265625 -2.453125 C 3.472656 -2.109375 3.816406 -1.9375 4.296875 -1.9375 C 4.691406 -1.9375 4.988281 -2.046875 5.1875 -2.265625 C 5.394531 -2.484375 5.5 -2.757812 5.5 -3.09375 L 7.84375 -3.09375 L 7.84375 -2.734375 C 7.84375 -1.878906 7.539062 -1.175781 6.9375 -0.625 C 6.34375 -0.0703125 5.445312 0.203125 4.25 0.203125 C 3.375 0.203125 2.65625 0.03125 2.09375 -0.3125 C 1.539062 -0.65625 1.128906 -1.132812 0.859375 -1.75 C 0.597656 -2.375 0.46875 -3.085938 0.46875 -3.890625 L 0.46875 -4.453125 C 0.46875 -5.265625 0.597656 -5.976562 0.859375 -6.59375 C 1.128906 -7.207031 1.539062 -7.6875 2.09375 -8.03125 C 2.65625 -8.375 3.375 -8.546875 4.25 -8.546875 C 5.445312 -8.546875 6.34375 -8.257812 6.9375 -7.6875 C 7.539062 -7.125 7.84375 -6.382812 7.84375 -5.46875 L 7.84375 -5.109375 L 5.5 -5.109375 C 5.5 -5.972656 5.097656 -6.40625 4.296875 -6.40625 C 3.816406 -6.40625 3.472656 -6.234375 3.265625 -5.890625 C 3.066406 -5.554688 2.96875 -5.078125 2.96875 -4.453125 Z M 2.96875 -3.890625 "/></g></g></g><g fill="#27334b" fill-opacity="1"><g transform="translate(163.518873, 18.992757)"><g><path d="M 8.28125 -3.28125 L 2.96875 -3.28125 C 3.019531 -2.695312 3.175781 -2.285156 3.4375 -2.046875 C 3.707031 -1.804688 4.070312 -1.6875 4.53125 -1.6875 C 4.96875 -1.6875 5.3125 -1.785156 5.5625 -1.984375 C 5.8125 -2.191406 5.9375 -2.421875 5.9375 -2.671875 L 8.28125 -2.671875 L 8.28125 -2.609375 C 8.28125 -2.085938 8.132812 -1.609375 7.84375 -1.171875 C 7.550781 -0.742188 7.125 -0.40625 6.5625 -0.15625 C 6.007812 0.0820312 5.328125 0.203125 4.515625 0.203125 C 3.597656 0.203125 2.835938 0.0234375 2.234375 -0.328125 C 1.640625 -0.679688 1.195312 -1.171875 0.90625 -1.796875 C 0.613281 -2.429688 0.46875 -3.148438 0.46875 -3.953125 L 0.46875 -4.390625 C 0.46875 -5.203125 0.613281 -5.921875 0.90625 -6.546875 C 1.207031 -7.171875 1.648438 -7.660156 2.234375 -8.015625 C 2.828125 -8.367188 3.554688 -8.546875 4.421875 -8.546875 C 5.304688 -8.546875 6.035156 -8.367188 6.609375 -8.015625 C 7.179688 -7.660156 7.601562 -7.171875 7.875 -6.546875 C 8.144531 -5.921875 8.28125 -5.203125 8.28125 -4.390625 Z M 4.375 -6.65625 C 3.519531 -6.65625 3.054688 -6.128906 2.984375 -5.078125 L 5.78125 -5.078125 C 5.707031 -6.128906 5.238281 -6.65625 4.375 -6.65625 Z M 4.375 -6.65625 "/></g></g></g><g fill="#273755" fill-opacity="1"><g transform="translate(7.672877, 27.914077)"><g><path d="M 6.890625 -2.4375 L 8.921875 -8.390625 L 10.640625 -8.390625 L 7.515625 0 L 5.8125 0 L 5.375 -5.59375 L 3.171875 0 L 1.484375 0 L 0.984375 -8.390625 L 2.625 -8.390625 L 2.796875 -2.46875 L 5.0625 -8.390625 L 6.5 -8.390625 Z M 6.890625 -2.4375 "/></g></g></g><g fill="#273755" fill-opacity="1"><g transform="translate(17.256228, 27.914077)"><g><path d="M 1.734375 0 L 0.09375 0 L 1.1875 -6.234375 L 2.828125 -6.234375 Z M 1.375 -7.828125 C 1.363281 -8.085938 1.445312 -8.300781 1.625 -8.46875 C 1.800781 -8.632812 2.015625 -8.71875 2.265625 -8.71875 C 2.515625 -8.726562 2.726562 -8.65625 2.90625 -8.5 C 3.082031 -8.34375 3.175781 -8.140625 3.1875 -7.890625 C 3.195312 -7.648438 3.117188 -7.441406 2.953125 -7.265625 C 2.785156 -7.085938 2.566406 -6.992188 2.296875 -6.984375 C 2.054688 -6.972656 1.84375 -7.046875 1.65625 -7.203125 C 1.476562 -7.359375 1.382812 -7.566406 1.375 -7.828125 Z M 1.375 -7.828125 "/></g></g></g><g fill="#273755" fill-opacity="1"><g transform="translate(19.858263, 27.914077)"><g><path d="M 3.3125 -7.78125 L 3.046875 -6.234375 L 4.078125 -6.234375 L 3.875 -5.015625 L 2.828125 -5.015625 L 2.296875 -1.890625 C 2.273438 -1.691406 2.289062 -1.539062 2.34375 -1.4375 C 2.394531 -1.332031 2.523438 -1.28125 2.734375 -1.28125 C 2.796875 -1.269531 2.960938 -1.273438 3.234375 -1.296875 L 3.125 -0.03125 C 2.832031 0.0625 2.519531 0.109375 2.1875 0.109375 C 1.65625 0.0976562 1.253906 -0.0664062 0.984375 -0.390625 C 0.722656 -0.722656 0.617188 -1.164062 0.671875 -1.71875 L 1.203125 -5.015625 L 0.328125 -5.015625 L 0.53125 -6.234375 L 1.421875 -6.234375 L 1.6875 -7.78125 Z M 3.3125 -7.78125 "/></g></g></g><g fill="#273755" fill-opacity="1"><g transform="translate(23.291132, 27.914077)"><g><path d="M 2.5 -5.546875 C 2.988281 -6.097656 3.550781 -6.367188 4.1875 -6.359375 C 4.800781 -6.335938 5.253906 -6.113281 5.546875 -5.6875 C 5.835938 -5.257812 5.945312 -4.675781 5.875 -3.9375 L 5.21875 0 L 3.59375 0 L 4.25 -3.953125 C 4.269531 -4.097656 4.273438 -4.234375 4.265625 -4.359375 C 4.222656 -4.773438 3.984375 -4.988281 3.546875 -5 C 3.109375 -5.019531 2.722656 -4.832031 2.390625 -4.4375 L 1.609375 0 L -0.015625 0 L 1.515625 -8.859375 L 3.140625 -8.859375 Z M 2.5 -5.546875 "/></g></g></g><g fill="#273755" fill-opacity="1"><g transform="translate(29.268432, 27.914077)"><g/></g></g><g fill="#273755" fill-opacity="1"><g transform="translate(31.685837, 27.914077)"><g><path d="M 3.75 -8.390625 L 4.78125 -2.328125 L 7.90625 -8.390625 L 10.15625 -8.390625 L 8.703125 0 L 7.015625 0 L 7.421875 -2.390625 L 8.25 -6.125 L 5.03125 0 L 3.859375 0 L 2.734375 -6.34375 L 2.203125 -2.203125 L 1.8125 0 L 0.125 0 L 1.578125 -8.390625 Z M 3.75 -8.390625 "/></g></g></g><g fill="#273755" fill-opacity="1"><g transform="translate(41.286497, 27.914077)"><g><path d="M 4.296875 -4.671875 C 4.066406 -4.710938 3.882812 -4.734375 3.75 -4.734375 C 3.164062 -4.753906 2.703125 -4.535156 2.359375 -4.078125 L 1.640625 0 L 0.015625 0 L 1.109375 -6.234375 L 2.625 -6.25 L 2.484375 -5.484375 C 2.867188 -6.078125 3.351562 -6.375 3.9375 -6.375 C 4.09375 -6.375 4.28125 -6.34375 4.5 -6.28125 Z M 4.296875 -4.671875 "/></g></g></g><g fill="#273755" fill-opacity="1"><g transform="translate(45.030929, 27.914077)"><g><path d="M 1.15625 -1.71875 C 1.414062 -1.726562 1.632812 -1.648438 1.8125 -1.484375 C 2 -1.316406 2.09375 -1.101562 2.09375 -0.84375 C 2.09375 -0.59375 2.003906 -0.378906 1.828125 -0.203125 C 1.648438 -0.0234375 1.4375 0.0625 1.1875 0.0625 C 0.925781 0.0703125 0.707031 0 0.53125 -0.15625 C 0.351562 -0.320312 0.257812 -0.53125 0.25 -0.78125 C 0.25 -1.039062 0.332031 -1.257812 0.5 -1.4375 C 0.675781 -1.613281 0.894531 -1.707031 1.15625 -1.71875 Z M 1.15625 -1.71875 "/></g></g></g><g fill="#273755" fill-opacity="1"><g transform="translate(47.921448, 27.914077)"><g/></g></g><g fill="#273755" fill-opacity="1"><g transform="translate(50.338855, 27.914077)"><g><path d="M 2.328125 -2.953125 L 1.8125 0 L 0.125 0 L 1.578125 -8.390625 L 4.515625 -8.390625 C 5.429688 -8.390625 6.144531 -8.132812 6.65625 -7.625 C 7.175781 -7.125 7.40625 -6.46875 7.34375 -5.65625 C 7.28125 -4.84375 6.9375 -4.1875 6.3125 -3.6875 C 5.6875 -3.195312 4.890625 -2.953125 3.921875 -2.953125 Z M 2.5625 -4.359375 L 3.96875 -4.34375 C 4.425781 -4.34375 4.800781 -4.457031 5.09375 -4.6875 C 5.394531 -4.925781 5.578125 -5.242188 5.640625 -5.640625 C 5.703125 -6.046875 5.640625 -6.367188 5.453125 -6.609375 C 5.265625 -6.847656 4.988281 -6.972656 4.625 -6.984375 L 3.03125 -7 Z M 2.5625 -4.359375 "/></g></g></g><g fill="#273755" fill-opacity="1"><g transform="translate(57.291234, 27.914077)"><g><path d="M 6.96875 -2.796875 C 6.90625 -2.222656 6.707031 -1.710938 6.375 -1.265625 C 6.039062 -0.816406 5.609375 -0.472656 5.078125 -0.234375 C 4.546875 0.00390625 3.972656 0.117188 3.359375 0.109375 C 2.804688 0.0976562 2.320312 -0.0234375 1.90625 -0.265625 C 1.5 -0.515625 1.175781 -0.867188 0.9375 -1.328125 C 0.707031 -1.796875 0.578125 -2.332031 0.546875 -2.9375 C 0.515625 -3.40625 0.5625 -3.988281 0.6875 -4.6875 C 0.8125 -5.394531 1.035156 -6.019531 1.359375 -6.5625 C 1.679688 -7.113281 2.0625 -7.550781 2.5 -7.875 C 3.125 -8.3125 3.835938 -8.523438 4.640625 -8.515625 C 5.503906 -8.492188 6.191406 -8.222656 6.703125 -7.703125 C 7.210938 -7.179688 7.492188 -6.457031 7.546875 -5.53125 L 5.859375 -5.546875 C 5.859375 -6.078125 5.75 -6.460938 5.53125 -6.703125 C 5.320312 -6.953125 5 -7.082031 4.5625 -7.09375 C 3.976562 -7.113281 3.5 -6.910156 3.125 -6.484375 C 2.757812 -6.054688 2.515625 -5.425781 2.390625 -4.59375 C 2.265625 -3.789062 2.207031 -3.191406 2.21875 -2.796875 C 2.238281 -2.285156 2.351562 -1.910156 2.5625 -1.671875 C 2.769531 -1.429688 3.0625 -1.304688 3.4375 -1.296875 C 3.945312 -1.273438 4.359375 -1.394531 4.671875 -1.65625 C 4.984375 -1.914062 5.191406 -2.296875 5.296875 -2.796875 Z M 6.96875 -2.796875 "/></g></g></g></svg>